<svg width="24" height="24" xmlns="http://www.w3.org/2000/svg" fill="#000000" enable-background="new 0 0 24 24">

 <g>
  <title>Layer 1</title>
  <g id="svg_1">
   <rect x="0.125" id="svg_2" width="24" height="24" fill="none"/>
  </g>
  <g id="svg_3">
   <path id="svg_4" fill-rule="evenodd" d="m15.875,9.125l0,-5l1,0c0.55,0 1,-0.45 1,-1l0,0c0,-0.55 -0.45,-1 -1,-1l-10,0c-0.55,0 -1,0.45 -1,1l0,0c0,0.55 0.45,1 1,1l1,0l0,5c0,1.66 -1.34,3 -3,3l0,0l0,2l5.97,0l0,7l1,1l1,-1l0,-7l6.03,0l0,-2l0,0c-1.66,0 -3,-1.34 -3,-3z"/>
  </g>
  <line stroke-width="2" stroke="#000" stroke-linecap="undefined" stroke-linejoin="undefined" id="svg_5" y2="20.49976" x2="19.74978" y1="4.75021" x1="3.50024" fill="none"/>
 </g>
</svg>